<svg xmlns="http://www.w3.org/2000/svg" version="1.1" xmlns:xlink="http://www.w3.org/1999/xlink" xmlns:svgjs="http://svgjs.com/svgjs" width="512" height="512" x="0" y="0" viewBox="0 0 32 32" style="enable-background:new 0 0 512 512" xml:space="preserve" class=""><g><g xmlns="http://www.w3.org/2000/svg" id="headset_talk"><path d="m21 1h-10c-4.9628906 0-9 4.0375977-9 9v10c0 .5522461.4472656 1 1 1h2.5c1.3789063 0 2.5-1.121582 2.5-2.5v-5c0-1.378418-1.1210937-2.5-2.5-2.5h-1.5v-1c0-3.8598633 3.140625-7 7-7h10c3.859375 0 7 3.1401367 7 7v1h-1.5c-1.3789063 0-2.5 1.121582-2.5 2.5v5c0 1.378418 1.1210938 2.5 2.5 2.5h1.5v1c0 3.8598633-3.140625 7-7 7v-1c0-1.1030273-.8974609-2-2-2h-2c-1.1025391 0-2 .8969727-2 2v1c0 1.1030273.8974609 2 2 2h4c4.9628906 0 9-4.0375977 9-9v-12c0-4.9624023-4.0371094-9-9-9zm-15.5 12c.2714844 0 .5.2290039.5.5v5c0 .2709961-.2285156.5-.5.5h-1.5v-6zm12.5 16h-1v-1h2v1zm8.5-10c-.2714844 0-.5-.2290039-.5-.5v-5c0-.2709961.2285156-.5.5-.5h1.5v6zm-10.5 5c.3339844 0 .6464844-.1669922.8320313-.4453125l1.703125-2.5546875h1.4648437c1.6542969 0 3-1.3457031 3-3v-6c0-1.6542969-1.3457031-3-3-3h-8c-1.6542969 0-3 1.3457031-3 3v6c0 1.6542969 1.3457031 3 3 3h1.4648438l1.703125 2.5546875c.1855468.2783203.4980468.4453125.8320312.4453125zm-2-5h-2c-.5517578 0-1-.4487305-1-1v-6c0-.5512695.4482422-1 1-1h8c.5517578 0 1 .4487305 1 1v6c0 .5512695-.4482422 1-1 1h-2c-.3339844 0-.6464844.1669922-.8320313.4453125l-1.1679687 1.7519531-1.1679688-1.7519531c-.1855468-.2783203-.4980468-.4453125-.8320312-.4453125zm1-4c0 .5522461-.4472656 1-1 1s-1-.4477539-1-1 .4472656-1 1-1 1 .4477539 1 1zm2 0c0-.5522461.4472656-1 1-1s1 .4477539 1 1-.4472656 1-1 1-1-.4477539-1-1z" fill="#2db7ff" data-original="#000000" class=""></path></g></g></svg>